<?xml version="1.0" standalone="no"?>
<!DOCTYPE svg PUBLIC "-//W3C//DTD SVG 20010904//EN"
 "http://www.w3.org/TR/2001/REC-SVG-20010904/DTD/svg10.dtd">
<svg version="1.0" xmlns="http://www.w3.org/2000/svg"
 width="1552.000000pt" height="1582.000000pt" viewBox="0 0 1552.000000 1582.000000"
 preserveAspectRatio="xMidYMid meet">

<g transform="translate(0.000000,1582.000000) scale(0.100000,-0.100000)"
fill="#000000" stroke="none">
<path d="M0 7910 l0 -7910 7760 0 7760 0 0 7910 0 7910 -7760 0 -7760 0 0
-7910z m7725 6053 c26 -16 63 -38 83 -50 21 -12 51 -29 67 -37 17 -9 48 -27
70 -40 22 -14 54 -32 70 -41 17 -8 48 -27 70 -40 22 -14 54 -32 70 -41 17 -8
46 -25 67 -37 61 -37 142 -83 158 -91 8 -4 31 -17 51 -29 20 -12 72 -42 114
-67 42 -25 94 -55 114 -67 20 -12 50 -29 66 -37 17 -9 48 -27 70 -41 22 -13
52 -29 68 -36 15 -6 27 -15 27 -19 0 -5 16 -14 35 -20 19 -6 35 -15 35 -19 0
-4 17 -15 38 -24 20 -9 52 -26 70 -37 17 -11 45 -28 61 -37 44 -27 387 -225
424 -246 18 -10 50 -29 72 -42 22 -13 54 -32 70 -40 17 -9 48 -27 70 -41 22
-13 54 -31 70 -40 17 -8 48 -26 70 -40 22 -13 54 -31 70 -40 17 -8 47 -25 67
-37 20 -12 102 -60 183 -107 81 -47 163 -95 183 -107 20 -12 51 -29 67 -37 17
-9 48 -27 70 -40 22 -14 54 -32 70 -40 17 -9 44 -25 60 -36 38 -25 81 -50 131
-75 21 -11 41 -23 44 -26 3 -3 99 -59 213 -125 115 -65 225 -129 245 -141 20
-12 51 -29 67 -37 17 -9 48 -27 70 -41 22 -13 54 -32 70 -40 17 -9 47 -26 67
-38 20 -12 78 -46 130 -75 51 -29 100 -57 108 -62 8 -5 64 -37 123 -72 60 -35
125 -73 145 -85 21 -12 51 -29 67 -37 17 -9 48 -27 70 -41 22 -13 52 -29 68
-36 15 -6 27 -15 27 -19 0 -5 16 -14 35 -20 19 -6 35 -15 35 -20 0 -5 16 -14
35 -21 19 -7 35 -16 35 -20 0 -4 12 -12 28 -18 15 -7 44 -22 64 -34 52 -31
324 -189 357 -207 15 -8 37 -26 50 -39 l23 -23 0 -3048 0 -3048 -23 -24 c-13
-12 -35 -30 -51 -38 -66 -36 -233 -134 -238 -139 -3 -3 -21 -14 -40 -24 -19
-9 -53 -28 -75 -42 -22 -13 -52 -29 -67 -36 -16 -6 -28 -14 -28 -18 0 -4 -16
-13 -35 -20 -19 -7 -35 -16 -35 -21 0 -5 -16 -14 -35 -20 -19 -6 -35 -15 -35
-20 0 -4 -12 -13 -27 -19 -16 -7 -46 -23 -68 -36 -22 -14 -53 -32 -70 -41 -16
-8 -46 -25 -67 -37 -20 -12 -85 -50 -145 -85 -59 -35 -115 -67 -123 -72 -8 -5
-57 -33 -108 -62 -52 -29 -110 -63 -130 -75 -20 -12 -50 -29 -67 -38 -16 -8
-48 -27 -70 -40 -22 -14 -53 -32 -70 -41 -16 -8 -48 -26 -70 -40 -22 -13 -53
-31 -70 -40 -16 -8 -47 -25 -67 -37 -20 -12 -99 -58 -175 -101 -76 -44 -140
-82 -143 -85 -3 -3 -23 -15 -44 -26 -50 -25 -93 -50 -131 -75 -16 -11 -43 -27
-60 -36 -16 -8 -48 -26 -70 -40 -22 -13 -53 -31 -70 -40 -16 -8 -48 -26 -70
-40 -22 -13 -54 -30 -71 -38 -17 -8 -36 -22 -44 -30 -7 -9 -16 -16 -21 -16 -5
0 -50 -24 -99 -52 -50 -29 -105 -61 -123 -71 -18 -10 -50 -28 -72 -42 -22 -13
-53 -31 -70 -39 -16 -9 -48 -27 -70 -40 -22 -14 -53 -32 -70 -40 -16 -9 -48
-27 -70 -41 -22 -13 -53 -32 -70 -40 -16 -9 -47 -26 -67 -38 -20 -12 -83 -49
-140 -81 -57 -33 -104 -63 -106 -68 -2 -4 -8 -8 -14 -8 -11 0 -117 -60 -230
-130 -18 -11 -50 -28 -70 -37 -21 -9 -38 -20 -38 -24 0 -4 -16 -13 -35 -19
-19 -6 -35 -15 -35 -20 0 -4 -12 -13 -27 -19 -16 -7 -46 -23 -68 -36 -22 -14
-53 -32 -70 -41 -16 -8 -46 -25 -66 -37 -20 -12 -72 -42 -114 -67 -42 -25 -94
-55 -114 -66 -20 -12 -55 -32 -78 -44 -23 -12 -57 -31 -75 -43 -18 -12 -44
-28 -58 -35 -14 -7 -43 -23 -65 -37 -22 -13 -53 -31 -70 -40 -16 -8 -48 -27
-70 -40 -22 -14 -51 -29 -65 -35 -13 -6 -31 -17 -38 -23 -17 -14 -134 -81
-179 -102 -17 -8 -34 -19 -38 -25 -9 -15 -51 -12 -65 5 -6 8 -21 17 -32 21
-11 3 -35 16 -54 29 -19 13 -54 33 -77 45 -44 23 -53 28 -217 125 -56 33 -130
75 -164 93 -33 19 -68 40 -76 47 -8 8 -26 19 -40 25 -14 6 -43 22 -65 35 -22
14 -56 32 -75 41 -19 9 -37 20 -40 24 -5 6 -16 13 -95 55 -16 9 -47 26 -67 38
-72 43 -213 124 -228 130 -8 4 -35 21 -60 37 -25 16 -58 36 -75 45 -16 8 -48
26 -70 39 -22 14 -53 32 -70 40 -16 9 -48 27 -70 40 -22 14 -53 32 -70 40 -16
9 -48 27 -70 41 -22 13 -53 32 -70 40 -16 9 -47 26 -67 38 -20 12 -79 46 -130
75 -106 61 -93 53 -221 129 -53 32 -112 66 -130 75 -17 10 -39 22 -47 28 -17
12 -52 33 -95 55 -16 9 -47 26 -67 38 -20 12 -78 46 -130 75 -51 29 -100 57
-108 62 -8 5 -64 37 -123 72 -60 35 -125 73 -145 85 -21 12 -50 29 -67 37 -16
9 -48 27 -70 40 -22 14 -53 32 -70 40 -16 9 -48 27 -70 41 -22 13 -51 30 -65
37 -14 7 -40 23 -58 35 -18 12 -52 31 -75 43 -23 12 -58 32 -78 44 -20 11
-119 68 -218 126 -100 58 -194 113 -209 123 -15 9 -40 24 -57 33 -16 8 -48 26
-70 40 -22 13 -53 31 -70 40 -16 8 -48 26 -70 39 -22 14 -54 32 -72 42 -36 20
-304 176 -361 210 -20 12 -50 29 -67 37 -16 9 -48 27 -70 40 -22 14 -53 32
-70 40 -16 9 -48 27 -70 40 -22 14 -53 32 -70 41 -16 8 -48 27 -70 40 -22 14
-51 30 -65 37 -14 7 -35 24 -47 38 l-22 25 0 3045 0 3045 22 25 c12 14 33 31
47 38 14 7 43 23 65 37 22 13 54 32 70 40 17 9 48 27 70 41 22 13 54 31 70 40
17 8 48 26 70 40 22 13 54 31 70 40 17 8 47 25 67 37 20 12 102 60 183 107 81
47 163 95 183 107 20 12 51 29 67 37 17 9 48 27 70 40 22 14 54 32 70 40 17 9
47 26 67 39 20 12 130 76 243 142 114 66 223 130 243 142 21 12 44 25 52 29
17 9 105 59 158 91 21 12 51 30 67 38 17 9 48 27 70 41 22 13 54 31 70 40 17
8 47 25 67 37 20 12 101 59 180 105 79 46 150 87 158 92 8 5 41 24 73 42 33
18 75 43 95 55 21 12 51 29 67 37 17 9 48 27 70 41 22 13 52 29 68 36 15 6 27
14 27 18 0 5 17 15 38 24 20 9 84 46 142 81 58 35 136 81 175 101 38 21 88 50
110 64 22 14 51 31 65 38 14 7 43 24 65 38 22 13 54 32 70 40 17 9 48 27 70
40 22 13 54 31 70 40 17 9 48 27 70 40 22 14 54 32 70 41 17 8 47 25 67 37 20
12 102 60 183 107 81 47 163 95 183 107 20 12 51 29 67 37 17 9 48 27 70 40
22 14 54 32 70 41 38 20 90 50 137 78 20 12 114 67 209 122 94 55 187 110 207
122 21 12 51 29 67 37 17 9 48 27 70 40 22 14 54 31 71 39 17 8 35 20 38 26
12 18 41 13 91 -16z"/>
<path d="M6855 9530 c-33 -11 -80 -22 -105 -26 -25 -4 -50 -11 -57 -16 -7 -5
-36 -16 -65 -23 -65 -17 -142 -42 -186 -61 -45 -19 -122 -18 -152 3 -39 27
-144 22 -211 -10 -62 -29 -129 -91 -130 -121 -2 -42 3 -71 16 -86 7 -8 16 -26
20 -40 4 -13 14 -30 21 -38 11 -11 14 -101 15 -490 0 -262 2 -495 4 -517 2
-22 7 -101 10 -175 3 -74 8 -151 10 -170 2 -19 7 -185 11 -368 5 -253 4 -345
-5 -385 -11 -44 -11 -60 3 -108 28 -94 151 -197 256 -214 25 -4 54 -9 64 -11
67 -12 211 74 303 182 26 32 55 64 63 73 15 16 83 114 108 154 7 12 26 42 42
67 16 25 45 77 64 115 20 39 49 93 65 120 17 28 30 57 31 65 0 8 9 26 20 40
11 14 20 32 20 41 0 9 9 28 20 42 11 14 20 34 20 44 0 11 7 28 15 39 8 10 20
37 26 59 6 22 17 47 24 55 7 8 15 31 19 51 4 21 13 42 20 48 8 7 17 28 21 49
4 20 13 48 20 62 14 26 36 91 60 173 7 26 18 53 23 60 5 7 13 30 16 52 4 22
13 49 20 60 7 11 16 40 20 65 4 25 13 54 20 65 8 11 17 45 21 75 4 30 13 69
20 85 8 17 19 63 25 104 6 40 16 83 22 95 8 13 12 70 13 151 0 104 -3 135 -16
155 -9 14 -19 39 -22 56 -8 44 -87 156 -157 225 -33 33 -62 59 -66 59 -3 0
-19 11 -36 25 -16 14 -37 25 -47 25 -9 0 -28 8 -41 17 -39 28 -216 29 -295 3z
m195 -345 c12 -11 29 -33 37 -50 18 -34 20 -134 3 -164 -5 -11 -13 -48 -17
-83 -3 -35 -11 -74 -18 -88 -7 -14 -18 -50 -23 -80 -6 -30 -18 -68 -26 -85 -9
-16 -16 -41 -16 -55 0 -14 -9 -42 -20 -63 -11 -20 -20 -46 -20 -57 0 -12 -9
-38 -20 -60 -11 -22 -20 -45 -20 -52 -1 -7 -9 -31 -20 -53 -11 -22 -19 -48
-20 -58 0 -9 -9 -34 -20 -54 -11 -21 -20 -47 -20 -58 0 -11 -9 -34 -19 -51
-10 -17 -22 -49 -26 -72 -3 -22 -13 -46 -21 -53 -8 -6 -14 -21 -14 -33 0 -11
-9 -36 -20 -54 -11 -18 -20 -37 -20 -43 0 -10 -39 -101 -65 -149 -7 -14 -16
-39 -19 -57 -4 -17 -13 -37 -21 -43 -7 -6 -16 -26 -19 -45 -7 -36 -58 -88 -79
-79 -42 16 -54 102 -62 434 -3 140 -8 305 -11 365 -8 141 -8 155 5 439 10 222
12 241 33 272 12 18 34 38 47 44 14 6 41 24 60 39 49 39 180 117 211 126 14 4
32 13 40 20 21 18 54 24 132 21 50 -1 72 -6 88 -21z"/>
<path d="M7957 9502 c-15 -2 -38 -13 -51 -25 -23 -22 -52 -90 -49 -117 7 -68
28 -150 45 -179 19 -30 23 -56 30 -230 4 -108 10 -234 13 -281 3 -47 8 -213
11 -370 5 -260 11 -388 34 -660 4 -52 9 -144 9 -205 1 -60 6 -130 12 -155 26
-121 22 -148 -33 -203 -29 -29 -24 -112 10 -161 50 -73 110 -126 215 -190 81
-50 222 -70 300 -43 43 16 116 67 117 83 0 5 8 19 18 30 9 11 32 49 51 84 19
35 39 71 45 79 20 27 189 195 316 314 69 64 140 131 158 148 17 17 32 35 32
40 0 5 7 9 15 9 8 0 15 7 15 15 0 7 6 18 13 22 16 10 97 118 115 153 6 14 26
50 42 80 38 70 53 161 44 268 -5 67 -11 89 -30 112 -13 15 -24 30 -24 33 0 25
-109 92 -167 103 -18 4 -38 13 -44 20 -6 8 -26 14 -43 14 -39 0 -106 18 -106
29 0 5 -27 11 -61 15 -86 10 -118 47 -86 102 7 12 49 61 95 110 46 49 88 99
95 111 7 12 27 42 45 68 17 25 32 49 32 53 0 4 9 15 20 25 11 9 20 25 20 34 0
10 9 33 20 51 11 18 20 39 20 47 0 9 9 41 20 72 14 42 20 83 20 150 0 90 -10
128 -51 193 -5 8 -17 27 -27 42 -9 16 -22 28 -28 28 -6 0 -23 9 -37 20 -17 14
-52 24 -109 30 -46 6 -95 12 -109 14 -42 6 -281 -23 -314 -38 -16 -8 -55 -17
-85 -21 -30 -4 -64 -14 -77 -22 -12 -8 -55 -17 -96 -20 -64 -5 -77 -3 -94 13
-78 76 -216 121 -326 106z m828 -407 c37 -36 35 -109 -5 -178 -58 -99 -69
-114 -138 -195 -52 -61 -171 -182 -179 -182 -4 0 -16 -9 -27 -19 -24 -23 -70
-18 -82 8 -4 9 -10 108 -12 219 -4 201 -3 204 19 228 12 13 28 24 35 24 7 0
19 6 26 13 7 7 29 19 48 27 19 7 42 19 51 27 8 7 22 13 30 13 8 1 32 9 54 20
25 12 62 19 98 20 48 0 62 -4 82 -25z m125 -1075 c20 -5 51 -23 70 -38 33 -28
34 -32 33 -94 -1 -53 -6 -74 -34 -124 -33 -58 -170 -204 -259 -277 -108 -87
-156 -124 -172 -130 -10 -3 -18 -11 -18 -16 0 -13 -73 -33 -93 -25 -29 11 -38
69 -44 285 -5 195 -4 219 12 246 19 33 97 88 148 105 18 6 34 14 37 18 5 8
103 38 160 50 52 11 120 11 160 0z"/>
</g>
</svg>
